<?xml version="1.0" encoding="utf-8"?>
<!-- Generator: Adobe Illustrator 26.3.1, SVG Export Plug-In . SVG Version: 6.00 Build 0)  -->
<svg version="1.1" id="Capa_1" xmlns="http://www.w3.org/2000/svg" xmlns:xlink="http://www.w3.org/1999/xlink" x="0px" y="0px"
	 viewBox="0 0 534 442" style="enable-background:new 0 0 534 442;" xml:space="preserve">
<style type="text/css">
	.st0{fill:none;}
	.st1{fill:#37BC9B;}
	.st2{fill:#F2F2F2;}
	.st3{opacity:0.7;fill:url(#SVGID_1_);enable-background:new    ;}
	.st4{fill:#6C63FF;}
	.st5{opacity:0.1;enable-background:new    ;}
	.st6{fill:#2F2FA5;}
	.st7{fill:#EEEEEE;}
	.st8{fill:#CCCCCC;}
	.st9{fill:#BDBDBD;}
	.st10{fill:#B84733;}
	.st11{fill:#E9573F;}
	.st12{fill:#3F3D56;}
	.st13{opacity:5.000000e-02;enable-background:new    ;}
	.st14{fill:#965450;}
	.st15{fill:#2F2E41;}
	.st16{fill:#495057;}
	.st17{clip-path:url(#SVGID_00000044139833451998320500000010569653873691596180_);fill:#808080;}
	.st18{fill:#873F3F;}
	.st19{fill:#535461;}
	.st20{opacity:0.7;fill:url(#SVGID_00000091737494369261895180000003331316808582438829_);enable-background:new    ;}
	.st21{fill:#3E3F49;}
	.st22{fill:#E0E0E0;}
	.st23{fill:#FDA57D;}
	.st24{fill:#76413B;}
	.st25{fill:#765E69;}
	.st26{fill:#A9C7DB;}
	.st27{fill:#352C38;}
	.st28{fill:#FFFFFF;}
</style>
<rect class="st0" width="534" height="442"/>
<path class="st1" d="M81.1,355.6c0,26.7-15.9,36.1-35.5,36.1c-0.5,0-0.9,0-1.4,0c-0.9,0-1.8-0.1-2.7-0.1
	c-17.7-1.3-31.4-11.1-31.4-35.9c0-25.7,32.9-58.2,35.3-60.6l0,0c0.1-0.1,0.1-0.1,0.1-0.1S81.1,328.8,81.1,355.6z"/>
<path class="st2" d="M44.3,387.5l13-18.1l-13,20.1l0,2.1c-0.9,0-1.8-0.1-2.7-0.1l1.4-26.7l0-0.2l0,0l0.1-2.5l-13-20.2l13.1,18.3
	l0,0.5l1.1-20.2l-11.2-20.8l11.3,17.3l1.1-41.9l0-0.1v0.1l-0.2,33l11.1-13.1l-11.2,15.9l-0.3,18.1l10.4-17.4l-10.4,20l-0.2,10.1
	l15.1-24.2l-15.1,27.7L44.3,387.5z"/>
<linearGradient id="SVGID_1_" gradientUnits="userSpaceOnUse" x1="480.8295" y1="246.148" x2="480.8295" y2="282.191" gradientTransform="matrix(1 0 0 -1 0 444)">
	<stop  offset="0" style="stop-color:#808080;stop-opacity:0.25"/>
	<stop  offset="0.5351" style="stop-color:#808080;stop-opacity:0.12"/>
	<stop  offset="1" style="stop-color:#808080;stop-opacity:0.1"/>
</linearGradient>
<path class="st3" d="M492.7,168.2v-6.4h-32.2v29.8c0,1.7,0.7,3.3,1.8,4.4c1.2,1.2,2.8,1.8,4.4,1.8h19.6c1.7,0,3.3-0.7,4.4-1.8
	c1.2-1.2,1.8-2.8,1.8-4.4V185c2.2,0,4.3-0.9,5.9-2.4c1.6-1.6,2.5-3.7,2.5-5.9c0-2.2-0.9-4.3-2.5-5.9
	C497.1,169.1,495,168.2,492.7,168.2z M492.7,181.8v-10.3c1.4,0,2.7,0.5,3.6,1.5c1,1,1.5,2.3,1.5,3.6c0,1.4-0.5,2.7-1.5,3.6
	C495.4,181.2,494.1,181.8,492.7,181.8z"/>
<path class="st4" d="M491.7,169.3c-1.5,0-3,0.4-4.2,1.3c-1.3,0.8-2.2,2-2.8,3.4c-0.6,1.4-0.7,2.9-0.4,4.4c0.3,1.5,1,2.8,2.1,3.9
	c1.1,1.1,2.4,1.8,3.9,2.1s3,0.1,4.4-0.4c1.4-0.6,2.6-1.6,3.4-2.8c0.8-1.3,1.3-2.7,1.3-4.2c0-2-0.8-4-2.2-5.4
	C495.7,170.1,493.7,169.3,491.7,169.3z M491.7,181.6c-0.9,0-1.8-0.3-2.6-0.8c-0.8-0.5-1.4-1.3-1.7-2.1c-0.4-0.9-0.4-1.8-0.3-2.7
	c0.2-0.9,0.6-1.8,1.3-2.4c0.7-0.7,1.5-1.1,2.4-1.3c0.9-0.2,1.9-0.1,2.7,0.3c0.9,0.4,1.6,1,2.1,1.7c0.5,0.8,0.8,1.7,0.8,2.6
	c0,1.2-0.5,2.4-1.4,3.3C494.1,181.1,493,181.6,491.7,181.6z"/>
<path class="st5" d="M491.7,169.3c-1.5,0-3,0.4-4.2,1.3c-1.3,0.8-2.2,2-2.8,3.4c-0.6,1.4-0.7,2.9-0.4,4.4c0.3,1.5,1,2.8,2.1,3.9
	c1.1,1.1,2.4,1.8,3.9,2.1s3,0.1,4.4-0.4c1.4-0.6,2.6-1.6,3.4-2.8c0.8-1.3,1.3-2.7,1.3-4.2c0-2-0.8-4-2.2-5.4
	C495.7,170.1,493.7,169.3,491.7,169.3z M491.7,181.6c-0.9,0-1.8-0.3-2.6-0.8c-0.8-0.5-1.4-1.3-1.7-2.1c-0.4-0.9-0.4-1.8-0.3-2.7
	c0.2-0.9,0.6-1.8,1.3-2.4c0.7-0.7,1.5-1.1,2.4-1.3c0.9-0.2,1.9-0.1,2.7,0.3c0.9,0.4,1.6,1,2.1,1.7c0.5,0.8,0.8,1.7,0.8,2.6
	c0,1.2-0.5,2.4-1.4,3.3C494.1,181.1,493,181.6,491.7,181.6z"/>
<path class="st6" d="M462.3,163.4h29.4v27.1c0,1.5-0.6,3-1.7,4.1c-1.1,1.1-2.5,1.7-4.1,1.7h-17.9c-1.5,0-3-0.6-4.1-1.7
	c-1.1-1.1-1.7-2.5-1.7-4.1V163.4z"/>
<path class="st5" d="M486.4,163.4v27.2c0,1.5-0.6,3-1.7,4.1c-1.1,1.1-2.5,1.7-4.1,1.7h2.9c1.5,0,3-0.6,4.1-1.7
	c1.1-1.1,1.7-2.5,1.7-4.1v-27.2H486.4z"/>
<path class="st7" d="M468.1,141.5c-0.3,0-0.5,0.1-0.7,0.2c-0.2,0.1-0.4,0.3-0.6,0.5c-0.4,0.7,0.3,1.5,1,2c1.2,0.9,2.4,1.8,3.2,3
	c0.8,1.2,1.1,3,0.2,4.2c-1.1,1.6-3.9,1.9-4.1,3.8c-0.2,1.2,0.9,2.3,2,2.9c2.6,1.5,6.1,1.9,8,4.3c0.8-1.6,2.6-2.6,4.3-3
	c1.8-0.4,3.6-0.4,5.4-0.6c0.3,0,0.6-0.1,0.8-0.2c0.3-0.1,0.5-0.3,0.7-0.6c0.5-1-0.9-2.2-0.4-3.3c0.4-0.8,1.5-0.7,2.3-1
	c1.3-0.5,1.9-2.2,1.5-3.5c-0.4-1.4-1.4-2.4-2.5-3.3c-3-2.3-6.6-3.7-10.2-4.7c-1.7-0.5-3.7-1.2-5.4-1.3
	C471.7,140.7,469.8,141.2,468.1,141.5z"/>
<path class="st8" d="M221.1,156l32.5,34.5c0.7,0.7,1.5,1.3,2.5,1.6c0.9,0.3,1.9,0.4,2.9,0.3c1-0.1,1.9-0.5,2.8-1
	c0.8-0.6,1.5-1.3,2-2.2l36-64.5l-10-3.5l-29.5,42.5c0,0-55.5-57.8-63.2-54.9C189.1,111.6,221.1,156,221.1,156z"/>
<g>
	<rect x="68.6" y="334.8" transform="matrix(0.3598 -0.933 0.933 0.3598 -228.2225 342.0391)" class="st9" width="133" height="5"/>
</g>
<g>
	<rect x="204.1" y="270.8" transform="matrix(0.933 -0.3599 0.3599 0.933 -107.5618 96.9715)" class="st9" width="5" height="133"/>
</g>
<g>
	<path class="st10" d="M170.9,291.2c30.7,0,55.5-6.7,55.5-15.1s-24.9-15.1-55.5-15.1c-30.7,0-55.5,6.7-55.5,15.1
		S140.2,291.2,170.9,291.2z"/>
</g>
<g>
	<path class="st11" d="M170.9,290.1c30.7,0,55.5-6.7,55.5-15.1c0-8.3-24.9-15.1-55.5-15.1c-30.7,0-55.5,6.7-55.5,15.1
		C115.3,283.3,140.2,290.1,170.9,290.1z"/>
</g>
<g>
	
		<rect x="171.2" y="283.2" transform="matrix(0.2944 -0.9557 0.9557 0.2944 -174.2946 385.1651)" class="st9" width="5" height="54.8"/>
</g>
<g>
	
		<rect x="140.6" y="308.1" transform="matrix(0.9557 -0.2945 0.2945 0.9557 -84.0181 63.2558)" class="st9" width="54.8" height="5"/>
</g>
<path class="st8" d="M171.5,107.5H188c8.8,0,17.2,3.5,23.4,9.7c6.2,6.2,9.7,14.6,9.7,23.4V228h-94.5v-75.6
	c0-11.9,4.7-23.4,13.2-31.8S159.6,107.5,171.5,107.5z"/>
<path class="st12" d="M126.6,228h94.5v51.4h-52.6c-11.1,0-21.8-4.4-29.7-12.3c-7.9-7.9-12.3-18.5-12.3-29.7V228z"/>
<path class="st13" d="M127.8,143l57.8,54.9h63.8v-8.3l-54.9-15.9l-47-58C147.5,115.7,126.2,128.8,127.8,143z"/>
<path class="st8" d="M127.8,141.8l57.8,54.9h63.8v-8.3l-54.9-15.9l-47-58C147.5,114.5,126.2,127.7,127.8,141.8z"/>
<path class="st14" d="M249.5,188.5c0,0,30.7,2.4,22.5,8.3h-22.5V188.5z"/>
<path class="st14" d="M289.6,121.1c0,0,7.7-23,13-16.5c5.3,6.5-3,20.1-3,20.1L289.6,121.1z"/>
<path class="st13" d="M126.6,228v2.8l94.5,0.2v-3H126.6z"/>
<path class="st12" d="M200.1,282.7l63.6,5.8l3.5,129.8l22.8-7.4c0,0,34-147.1,1.6-159.5C259,239,223.9,222.7,203,236
	C182,249.3,200.1,282.7,200.1,282.7z"/>
<path class="st5" d="M204,242.8c0,0,34.9,17.7,39.6,37.8L204,242.8z"/>
<path class="st12" d="M166.7,278.8l49.6,40.2l-55.5,89.2l23,6.5c0,0,96.3-82.7,76.2-111.1c-20.1-28.4-40.2-61.4-65-62
	C170.3,241,166.7,278.8,166.7,278.8z"/>
<path class="st13" d="M244.7,148.3l12.4,21.3l3-5.9L244.7,148.3z"/>
<path class="st15" d="M160.8,408.2c0,0-18.3,14.2-4.1,18.9c14.2,4.7,43.1,8.3,43.1,8.3s4.7-8.3-1.8-11.8c-6.5-3.5-15.4-1.8-15.4-1.8
	l1.2-7.1L160.8,408.2z"/>
<path class="st15" d="M267.7,417.9c0,0-8,22.3,6.5,18.8c14.5-3.5,41-15.8,41-15.8s-0.4-9.5-7.8-9.1c-7.4,0.4-14,6.6-14,6.6l-3.2-7.9
	L267.7,417.9z"/>
<path class="st14" d="M173.8,86.8L173.8,86.8c-6.5,0-11.8,5.3-11.8,11.8v11.8c0,6.5,5.3,11.8,11.8,11.8l0,0
	c6.5,0,11.8-5.3,11.8-11.8V98.7C185.6,92.1,180.4,86.8,173.8,86.8z"/>
<path class="st13" d="M173.8,88c-3.1,0-6.1,1.2-8.4,3.5c-2.2,2.2-3.5,5.2-3.5,8.4v4c7.7,2.5,16,2.5,23.6,0v-4c0-3.1-1.2-6.1-3.5-8.4
	C180,89.3,177,88,173.8,88z"/>
<path class="st16" d="M71.7,381.2H19.4C8.7,381.2,0,389.9,0,400.6l0,0c0,10.7,8.7,19.4,19.4,19.4h52.3c10.7,0,19.4-8.7,19.4-19.4
	C91,389.9,82.4,381.2,71.7,381.2z"/>
<g>
	<g>
		<defs>
			<path id="SVGID_00000042698864656647129550000014942572296900270264_" d="M340.2,242.9c0.2,0,0.4-0.1,0.6-0.3
				c0.2-0.2,0.2-0.4,0.2-0.6c0-0.2-0.1-0.5-0.2-0.6c-0.2-0.2-0.4-0.3-0.6-0.3c-0.2,0-0.4,0.1-0.6,0.3c-0.2,0.2-0.2,0.4-0.2,0.6
				c0,0.2,0.1,0.4,0.2,0.6C339.8,242.8,340,242.9,340.2,242.9z"/>
		</defs>
		<clipPath id="SVGID_00000080198778608769186570000009024801604737717928_">
			<use xlink:href="#SVGID_00000042698864656647129550000014942572296900270264_"  style="overflow:visible;"/>
		</clipPath>
		
			<rect x="339.4" y="241.1" style="clip-path:url(#SVGID_00000080198778608769186570000009024801604737717928_);fill:#808080;" width="1.7" height="1.8"/>
	</g>
</g>
<g>
	
		<rect x="491.3" y="199" transform="matrix(0.9627 -0.2706 0.2706 0.9627 -66.0879 145.6735)" class="st18" width="8" height="227.1"/>
</g>
<path class="st18" d="M532,196.8H200.2v12.9H532V196.8z"/>
<path class="st19" d="M332.5,193.8h-46.7c-2.1,0-3.8,1.7-3.8,3.8l0,0c0,2.1,1.7,3.8,3.8,3.8h46.7c2.1,0,3.8-1.7,3.8-3.8
	C336.3,195.5,334.6,193.8,332.5,193.8z"/>
<linearGradient id="SVGID_00000029742417396686311750000001832958217827631010_" gradientUnits="userSpaceOnUse" x1="382.5815" y1="-31529" x2="382.5815" y2="-16762.9004" gradientTransform="matrix(1 0 0 -1 0 444)">
	<stop  offset="0" style="stop-color:#808080;stop-opacity:0.25"/>
	<stop  offset="0.5351" style="stop-color:#808080;stop-opacity:0.12"/>
	<stop  offset="1" style="stop-color:#808080;stop-opacity:0.1"/>
</linearGradient>
<path style="opacity:0.7;fill:url(#SVGID_00000029742417396686311750000001832958217827631010_);enable-background:new    ;" d="
	M433.5,108.2H331.7c-9.2,0-16.7,7.5-16.7,16.7v60.1c0,9.2,7.5,16.7,16.7,16.7h101.8c9.2,0,16.7-7.5,16.7-16.7v-60.1
	C450.1,115.6,442.7,108.2,433.5,108.2z"/>
<path class="st21" d="M429.6,109.9h-96.3c-8.8,0-15.9,7.1-15.9,15.9v60c0,8.8,7.1,15.9,15.9,15.9h96.3c8.8,0,15.9-7.1,15.9-15.9v-60
	C445.4,117,438.3,109.9,429.6,109.9z"/>
<path class="st19" d="M431.3,109.9h-96.3c-8.8,0-15.9,7.1-15.9,15.9v60c0,8.8,7.1,15.9,15.9,15.9h96.3c8.8,0,15.9-7.1,15.9-15.9v-60
	C447.2,117,440.1,109.9,431.3,109.9z"/>
<path class="st22" d="M389.2,159.2c2.3,0,4.1-1.9,4.1-4.1c0-2.3-1.9-4.1-4.1-4.1s-4.1,1.9-4.1,4.1
	C385,157.4,386.9,159.2,389.2,159.2z"/>
<g>
	
		<rect x="89.6" y="318.6" transform="matrix(0.3511 -0.9364 0.9364 0.3511 -161.1914 412.6425)" class="st18" width="255" height="8"/>
</g>
<g>
	<path class="st23" d="M174.8,88.6c0,0-4.7-2.3-11.5,0.2c0,0,10.4,11,22.1,0.1C185.4,88.9,179.1,85.9,174.8,88.6z"/>
</g>
<g>
	<g>
		<g>
			<g>
				<polygon class="st14" points="186.4,97.6 174.6,98.3 174.6,97.6 173.4,98 172.1,97.6 172.1,98.3 160.3,97.6 				"/>
			</g>
		</g>
		<g>
			<g>
				<path class="st24" d="M152.8,66.7c-2.3-7.2-7.8-5.5-8.3-5.4c-0.5,0.1-6.2,0.9-5.2,8.4c1,7.5,5.4,11.6,9.5,10.4
					C153,79.5,155.2,73.9,152.8,66.7z"/>
				<path class="st24" d="M194.8,66.7c2.3-7.2,7.8-5.5,8.3-5.4c0.5,0.1,6.2,0.9,5.2,8.4c-1,7.5-5.4,11.6-9.5,10.4
					C194.7,79.5,192.5,73.9,194.8,66.7z"/>
				<path class="st14" d="M144.7,56.3c2.6-28.3,22.1-29.8,27.8-29.7c0.9,0,1.8,0,2.7,0c5.7-0.2,25.2,1.4,27.8,29.7
					c2.9,31.8-11.3,52.5-29.1,51.4C155.9,108.8,141.8,88,144.7,56.3z"/>
			</g>
			<g>
				<path class="st24" d="M176.3,60c0.4,1.4,0.7,2.9,1,4.4c0.3,1.5,0.5,2.9,0.7,4.4c0.1,0.7,0.2,1.5,0.3,2.2
					c0.1,0.7,0.2,1.5,0.2,2.2c0.2,1.5,0.3,3,0.4,4.4l0,0.4l-0.3,0.2c-0.9,0.6-1.9,1.1-2.9,1.7c-1,0.5-1.9,1.1-3,1.6
					c0.8-0.8,1.7-1.5,2.5-2.2c0.9-0.7,1.7-1.4,2.6-2.1l-0.3,0.6c-0.2-1.5-0.5-2.9-0.6-4.4c-0.1-0.7-0.2-1.5-0.2-2.2
					c-0.1-0.7-0.2-1.5-0.2-2.2c-0.1-1.5-0.2-3-0.3-4.5C176.2,63,176.2,61.5,176.3,60z"/>
				<g>
					<g>
						<path class="st25" d="M169.5,67.8l-20.9-0.7l-6.1-6.3l0.8-1.1l5.8,6.1l19.7,0.6c0.7-0.9,2.9-3.3,5.7-3.2
							c1.7,0.1,3.3,1.2,4.6,3.3h20.3l4.6-5.9l0.9,1l-5,6.3h-21.6l-0.2-0.3c-1.1-1.9-2.4-2.9-3.7-2.9c-2.5-0.1-4.7,2.9-4.8,3
							L169.5,67.8z"/>
					</g>
					<g>
						<path class="st26" d="M148.2,67.1c-0.8,5.7,4.7,10.5,10.5,10.5c5.8,0,10.5-4.7,10.5-10.5S164.8,61,159,61
							C153.2,61,148.8,63,148.2,67.1z"/>
						<path class="st25" d="M158.7,78.3c-6.1,0-11.5-5-11.1-11.1c0.3-4.7,5.3-6.8,11.5-6.8s10.8,2.1,10.8,6.8
							C169.8,73.3,164.8,78.3,158.7,78.3z M148.9,67.1c1,5.3,4.4,9.8,9.8,9.8c5.4,0,9.4-4.4,9.8-9.8
							C169.1,58.6,147.5,60.3,148.9,67.1z"/>
					</g>
					<g>
						<path class="st26" d="M178.7,67.1c0,5.8,4.7,10.5,10.5,10.5c5.8,0,10.5-4.7,10.5-10.5C199.6,57.3,178.7,57.6,178.7,67.1z"/>
						<path class="st25" d="M189.2,78.3c-6.1,0-11.1-5-11.1-11.1s5-7.8,11.1-7.8c6.1,0,11.1,1.7,11.1,7.8S195.3,78.3,189.2,78.3z
							 M189.2,60.6c-5.4,0-9.8,1.1-9.8,6.5c0,5.4,4.4,9.8,9.8,9.8s9.8-4.4,9.8-9.8C199,61.7,194.6,60.6,189.2,60.6z"/>
					</g>
				</g>
				<path class="st27" d="M181.3,82.4c6,0.1,9.3,2.2,9.3,2.2c5.3,2.5,5.1,10.5,5.1,10.5s-1.2,3.9-5.6,6.7
					c-3.6,3.8-11.3,6.3-15.6,6.2s-7.9-0.5-12.3-2.9c-1.9-1.1-5.3-3.5-6.7-5.3c-1.1-1.5-2.1-3.1-1.6-5.3c1.4-6.1,7.6-10,7.6-10
					c4.4-2.1,5.2-1.8,5.2-1.8s6.6-0.8,8.2,1.8c0,0,1.7-2.2,6.1-2.2"/>
				<path class="st28" d="M186,87.1c-5.7,5.6-15.4,5.2-22.7,0.3"/>
				<path class="st27" d="M196.4,57.6c0,0-0.3-0.1-0.7-0.4c-0.2-0.1-0.5-0.3-0.8-0.4c-0.3-0.2-0.6-0.3-1-0.5
					c-0.4-0.2-0.7-0.4-1.1-0.5c-0.2-0.1-0.4-0.2-0.6-0.3c-0.2-0.1-0.4-0.2-0.6-0.2c-0.4-0.2-0.9-0.3-1.3-0.4c-0.5,0-0.9-0.2-1.4-0.2
					l-0.7-0.1c-0.2,0-0.5,0-0.7,0c-0.5,0-0.9,0.2-1.3,0.2c-0.4,0.1-0.8,0.3-1.2,0.4l-0.3,0.1l-0.3,0.1c-0.2,0.1-0.4,0.2-0.5,0.3
					c-0.3,0.2-0.7,0.3-1,0.5c-0.3,0.2-0.5,0.3-0.8,0.4c-0.4,0.2-0.7,0.4-0.7,0.4s0.1-0.3,0.4-0.7c0.1-0.2,0.3-0.5,0.5-0.8
					c0.2-0.3,0.4-0.6,0.8-0.9c0.3-0.3,0.6-0.7,1.1-1c0.4-0.3,0.9-0.6,1.4-0.8c0.3-0.1,0.6-0.2,0.8-0.3c0.3-0.1,0.6-0.2,0.9-0.2
					c0.3,0,0.6-0.1,0.9-0.1c0.3,0,0.6,0,1,0c0.6,0,1.2,0.2,1.8,0.4c0.3,0.1,0.6,0.2,0.8,0.3c0.3,0.1,0.5,0.2,0.8,0.4
					c0.2,0.1,0.5,0.3,0.7,0.4c0.2,0.2,0.4,0.3,0.6,0.5c0.4,0.3,0.7,0.7,1,1c0.6,0.7,1,1.3,1.2,1.7C196.4,57.3,196.4,57.6,196.4,57.6
					z"/>
				<path class="st27" d="M166.5,57.6c0,0-0.3-0.1-0.7-0.4c-0.2-0.1-0.5-0.3-0.8-0.4c-0.3-0.2-0.6-0.3-1-0.5
					c-0.4-0.2-0.7-0.4-1.2-0.5c-0.2-0.1-0.4-0.2-0.6-0.3c-0.2-0.1-0.4-0.2-0.6-0.2c-0.4-0.2-0.9-0.3-1.3-0.4c-0.5,0-0.9-0.2-1.4-0.2
					l-0.7-0.1c-0.2,0-0.5,0-0.7,0c-0.5,0-0.9,0.2-1.3,0.2c-0.4,0.1-0.8,0.3-1.2,0.4l-0.3,0.1l-0.3,0.1c-0.2,0.1-0.4,0.2-0.5,0.3
					c-0.3,0.2-0.7,0.3-1,0.5c-0.3,0.2-0.5,0.3-0.8,0.4c-0.4,0.2-0.7,0.4-0.7,0.4s0.1-0.3,0.4-0.7c0.1-0.2,0.3-0.5,0.5-0.8
					c0.2-0.3,0.4-0.6,0.8-0.9c0.3-0.3,0.6-0.7,1.1-1c0.4-0.3,0.9-0.6,1.4-0.8c0.3-0.1,0.6-0.2,0.8-0.3c0.3-0.1,0.6-0.2,0.9-0.2
					c0.3,0,0.6-0.1,0.9-0.1c0.3,0,0.6,0,1,0c0.6,0,1.2,0.2,1.8,0.4c0.3,0.1,0.6,0.2,0.8,0.3c0.3,0.1,0.5,0.2,0.8,0.4
					c0.2,0.1,0.5,0.3,0.7,0.4c0.2,0.2,0.4,0.3,0.6,0.5c0.4,0.3,0.7,0.7,1,1c0.6,0.7,1,1.3,1.2,1.7C166.4,57.3,166.5,57.6,166.5,57.6
					z"/>
				<path class="st27" d="M165.6,69.1c0,0-0.1-0.3-0.2-0.7c-0.1-0.4-0.4-1-0.7-1.7c-0.4-0.7-0.9-1.4-1.6-1.9
					c-0.3-0.3-0.7-0.5-1.2-0.6c-0.2-0.1-0.4-0.1-0.7-0.2c-0.2,0-0.5-0.1-0.7-0.1c-0.2,0-0.5,0-0.7,0c-0.2,0-0.5,0.1-0.7,0.1
					c-0.4,0.1-0.8,0.3-1.1,0.5c-0.3,0.2-0.6,0.6-0.9,0.9c-0.2,0.3-0.4,0.7-0.5,1c-0.3,0.7-0.4,1.3-0.5,1.8c-0.1,0.4-0.1,0.7-0.1,0.7
					s-0.1-0.3-0.1-0.7c0-0.5-0.1-1.1,0.1-1.9c0.1-0.4,0.2-0.8,0.4-1.3c0.2-0.4,0.5-0.9,1-1.2c0.4-0.4,0.9-0.6,1.5-0.8
					c0.3-0.1,0.5-0.1,0.8-0.2c0.3-0.1,0.6,0,0.9,0c0.3,0,0.6,0,0.9,0.1c0.3,0,0.6,0.1,0.8,0.2c0.3,0.1,0.5,0.2,0.8,0.4
					c0.3,0.1,0.5,0.3,0.7,0.5c0.8,0.7,1.3,1.6,1.5,2.4c0.3,0.8,0.3,1.4,0.4,1.9C165.6,68.8,165.6,69.1,165.6,69.1z"/>
				<path class="st27" d="M192.5,68.6c0,0-0.1-0.3-0.2-0.7c-0.1-0.4-0.4-1-0.7-1.7c-0.4-0.7-0.9-1.4-1.6-1.9
					c-0.3-0.3-0.7-0.5-1.2-0.6c-0.2-0.1-0.4-0.1-0.7-0.2c-0.2,0-0.5-0.1-0.7-0.1c-0.2,0-0.5,0-0.7,0c-0.2,0-0.5,0.1-0.7,0.1
					c-0.4,0.1-0.8,0.3-1.1,0.5c-0.3,0.2-0.6,0.6-0.9,0.9c-0.2,0.3-0.4,0.7-0.5,1c-0.3,0.7-0.4,1.3-0.5,1.8c-0.1,0.4-0.1,0.7-0.1,0.7
					s-0.1-0.3-0.1-0.7c0-0.5-0.1-1.1,0.1-1.9c0.1-0.4,0.2-0.8,0.4-1.3c0.2-0.4,0.5-0.9,1-1.2c0.4-0.4,0.9-0.6,1.5-0.8
					c0.3-0.1,0.5-0.1,0.8-0.2c0.3-0.1,0.6,0,0.9,0c0.3,0,0.6,0,0.9,0.1c0.3,0,0.6,0.1,0.8,0.2c0.3,0.1,0.5,0.2,0.8,0.4
					c0.3,0.1,0.5,0.3,0.7,0.5c0.8,0.7,1.3,1.6,1.5,2.4c0.3,0.8,0.3,1.4,0.4,1.9C192.5,68.4,192.5,68.6,192.5,68.6z"/>
			</g>
		</g>
	</g>
	<path class="st27" d="M155.5,99.8c0,0-10.4-8.3-11.2-34.2c0,0,10.2,22,14.4,22.4L155.5,99.8z"/>
	<path class="st27" d="M192.3,99.8c0,0,10.7-10.3,11-34.2c0,0-10,22-14.2,22.4L192.3,99.8z"/>
</g>
</svg>
